<?xml version="1.0" encoding="UTF-8"?>
<svg id="Layer_1" data-name="Layer 1" xmlns="http://www.w3.org/2000/svg" viewBox="0 0 500 500">
  <defs>
    <style>
      .cls-1 {
        fill: #012265;
      }

      .cls-2 {
        fill: #012265;
      }
    </style>
  </defs>
  <g>
    <path class="cls-1" d="M460.94,173.6c-.16,2.07-1.54,3.93-3.63,4.61-.53.17-1.09.26-1.63.26-2.23,0-4.31-1.42-5.04-3.66l-.39-1.2h-15.47c-7.42-28.48-32.74-49.74-63.22-51.05-1-.05-2-.07-3-.07s-2.08.02-3.11.07l-6.14-12.85h-3.22c-2.81,0-5.09-2.27-5.09-5.08v-.41c0-2.21,1.42-4.09,3.39-4.78.52-.2,1.1-.3,1.7-.3h81.09l3.16,9.71,20.37,62.69c.23.69.3,1.39.24,2.07Z"/>
    <path class="cls-2" d="M455.69,182.46c-3.46,0-6.57-1.9-8.18-4.87h-15.82l-.78-2.99c-7.06-27.1-31.53-46.86-59.52-48.06-.91-.05-1.82-.07-2.83-.07s-2,.02-2.91.07l-2.66.13-6.2-12.98h-.7c-5.01,0-9.09-4.07-9.09-9.08v-.41c0-3.85,2.44-7.29,6.08-8.56.9-.34,1.94-.52,3.02-.52h83.99l24.43,75.17c.39,1.17.53,2.4.42,3.64-.31,3.75-2.81,6.92-6.38,8.08-.92.3-1.88.45-2.86.45ZM437.8,169.6h15.36l1.29,3.97c.26.79,1.09,1.02,1.62.84.61-.2.86-.73.89-1.12v-.04c.02-.16,0-.3-.05-.46l-22.63-69.66h-78.18c-.15,0-.26.03-.3.05-.43.15-.79.51-.79,1.04v.41c0,.6.49,1.08,1.09,1.08h5.74l6.11,12.78c1.32,0,2.63.01,3.83.07,15.67.67,30.41,6.29,42.59,16.23,11.03,9.01,19.28,21.28,23.45,34.81Z"/>
  </g>
  <g>
    <path class="cls-2" d="M461.38,271.17c-9.55,0-26.15-1.6-42.48-10.84-10.31-5.83-19.08-13.92-25.36-23.38-.39-.59-.17-1.34.49-1.69.66-.34,1.51-.15,1.9.44,6.06,9.14,14.51,16.94,24.45,22.56,16.92,9.57,34.15,10.63,42.92,10.43.78-.05,1.41.52,1.43,1.2.02.68-.58,1.25-1.35,1.27-.63.02-1.3.02-2.01.02Z"/>
    <path class="cls-2" d="M461.38,277.17c-11.36,0-28.46-2.01-45.43-11.61-11.13-6.29-20.61-15.04-27.4-25.29-1.12-1.68-1.47-3.76-.97-5.71.51-1.97,1.85-3.65,3.68-4.61,3.42-1.78,7.59-.73,9.69,2.44,5.54,8.35,13.28,15.49,22.41,20.65,15.59,8.82,31.56,9.84,39.76,9.65,1.92-.09,3.84.61,5.27,1.9,1.44,1.31,2.31,3.17,2.37,5.1.06,1.91-.64,3.74-1.96,5.14-1.35,1.42-3.26,2.27-5.24,2.32-.67.02-1.39.03-2.15.03Z"/>
  </g>
  <g>
    <path class="cls-2" d="M73.43,186.99c-.2,0-.4-.03-.6-.09-.82-.26-1.21-.98-.87-1.61,16.4-31.07,37.89-42.98,63.86-35.38.82.24,1.24.95.93,1.59-.31.64-1.23.96-2.06.72-24.38-7.13-43.94,4-59.78,34.01-.25.48-.85.77-1.48.77Z"/>
    <path class="cls-2" d="M73.43,192.99c-.81,0-1.61-.12-2.39-.36-2.16-.68-3.86-2.21-4.68-4.22-.79-1.92-.68-4.08.29-5.92,22.32-42.28,50.85-44.19,70.85-38.34,2.15.63,3.88,2.12,4.75,4.1.83,1.89.79,4.04-.12,5.89-1.59,3.24-5.51,4.9-9.13,3.83-13.53-3.95-33.73-5.04-52.79,31.05-1.29,2.45-3.89,3.97-6.78,3.97ZM136.36,146.45h0s0,0,0,0Z"/>
  </g>
  <g>
    <g>
      <g>
        <path class="cls-2" d="M432.13,317.3c-.39,0-.78-.07-1.16-.23-.71-.29-1.36-.73-1.9-1.27-13.81-13.77-21.75-28.59-23.58-44.05-.07-.61-.13-1.21-.19-1.81-1.17-13.51,3.01-22.92,6.37-30.49l.96-2.15c4.14-9.33,7.25-17.44,6.47-29.84-1.76-28.01-17.12-49.11-30.65-56.86-7.23-4.14-16.23-9.29-42.91-6.5-1.65.19-3.12-1.02-3.3-2.67-.17-1.65,1.02-3.12,2.67-3.3,26.42-2.77,37.08,1.85,46.52,7.26,15.38,8.81,31.76,31.3,33.66,61.7.93,14.85-3.45,24.72-6.98,32.65l-.96,2.15c-3.92,8.82-6.84,16.45-5.87,27.53.05.54.1,1.08.17,1.63,1.67,14.09,9.02,27.72,21.85,40.51,1.53.63,2.24,2.37,1.61,3.91-.48,1.15-1.6,1.84-2.78,1.84Z"/>
        <path class="cls-2" d="M432.13,320.3c-.79,0-1.57-.15-2.3-.46-1.06-.44-2.06-1.1-2.88-1.92-14.3-14.26-22.53-29.68-24.44-45.83-.08-.64-.14-1.28-.2-1.91-1.24-14.27,3.11-24.08,6.61-31.96l.96-2.16c3.97-8.94,6.95-16.72,6.22-28.43-1.69-26.91-16.29-47.08-29.15-54.45-6.85-3.93-15.38-8.81-41.11-6.12-1.57.18-3.13-.27-4.38-1.28-1.26-1.01-2.05-2.45-2.21-4.06-.17-1.59.3-3.16,1.3-4.4s2.44-2.02,4.04-2.19c27.31-2.86,38.44,1.98,48.32,7.64,16.08,9.21,33.19,32.6,35.16,64.11.98,15.58-3.57,25.82-7.23,34.05l-.96,2.15c-3.86,8.7-6.53,15.66-5.63,26.06.04.5.1,1.01.16,1.53,1.57,13.28,8.52,26.2,20.65,38.4,2.61,1.46,3.78,4.68,2.61,7.52-.93,2.25-3.11,3.7-5.55,3.7ZM431.85,314.17c.08.05.17.09.26.12h.01s.02,0,.02,0l-.29-.12ZM408.41,270.86c.02.18.04.36.06.53,1.75,14.77,9.39,29,22.71,42.28.04.04.07.07.11.1l-.11-.1c-13.32-13.28-20.97-27.51-22.71-42.28-.02-.18-.04-.35-.06-.53ZM408.34,270.21c.01.14.03.29.04.43-.01-.14-.03-.29-.04-.43ZM414.94,239.47l-.53,1.2c-1.32,2.98-2.78,6.26-3.96,9.98,1.08-3.33,2.45-6.57,3.96-9.98l.53-1.19ZM419.58,227.89c-1.1,3.4-2.47,6.68-3.98,10.1,1.34-3.02,2.78-6.33,3.98-10.1ZM389.57,147.78c.12.07.24.14.36.21,14.21,8.14,30.33,30.16,32.16,59.28,0,.03,0,.06,0,.1,0-.03,0-.06,0-.1-1.83-29.28-17.47-50.87-32.16-59.28-.12-.07-.24-.14-.36-.21ZM350.7,140.62c-1.74.12-3.57.28-5.48.48,1.91-.2,3.73-.36,5.48-.48Z"/>
      </g>
      <g>
        <path class="cls-2" d="M319.07,225.94c-10.06,0-17.54-2.93-20.34-4.22-16.55-7.61-28.33-26.28-28.65-45.4-.35-20.76,12.28-45,34.01-49.61,30.8-6.54,43.14,11.97,43.65,12.76.9,1.39.5,3.25-.89,4.15-1.39.9-3.24.5-4.14-.88-.46-.7-10.83-15.78-37.37-10.16-18.46,3.92-29.56,25.7-29.26,43.64.28,16.9,10.62,33.37,25.15,40.05,1.97.91,9.15,3.85,18.75,3.66,10.05-.21,17.92-3.74,22.75-6.67,1.42-.86,3.26-.41,4.12,1.01.86,1.42.4,3.26-1.01,4.12-5.46,3.31-14.36,7.3-25.74,7.53-.35,0-.69.01-1.03.01Z"/>
        <path class="cls-2" d="M319.08,228.94c-10.67,0-18.66-3.14-21.6-4.49-17.56-8.07-30.06-27.84-30.39-48.08-.37-21.98,13.15-47.66,36.39-52.59,32.82-6.96,46.24,13.21,46.79,14.07.87,1.34,1.16,2.95.82,4.52-.34,1.57-1.27,2.91-2.61,3.78-2.76,1.79-6.48,1-8.28-1.77-.37-.56-9.63-14.08-34.23-8.86-16.96,3.6-27.16,23.91-26.88,40.66.26,15.79,9.89,31.16,23.41,37.37,1.83.84,8.5,3.56,17.44,3.39,9.38-.19,16.74-3.5,21.26-6.23,1.37-.83,2.98-1.08,4.54-.69,1.56.38,2.87,1.35,3.7,2.72.83,1.37,1.08,2.98.69,4.54s-1.35,2.87-2.72,3.7c-5.78,3.5-15.19,7.72-27.23,7.96-.37,0-.73.01-1.09.01ZM300.35,219.16c2.87,1.27,9.83,3.89,19.07,3.78-9.44.03-16.59-2.68-19.07-3.78ZM304.54,129.69c-20.11,4.38-31.78,27.09-31.46,46.59.2,12.09,5.26,23.99,13.26,32.66-8-8.67-13.06-20.57-13.26-32.66-.32-19.07,11.62-42.25,31.46-46.59ZM316.6,128.34c19.91,0,28.21,12.14,28.61,12.75-.45-.7-11.64-17.48-40.32-11.47,4.28-.9,8.18-1.28,11.71-1.28Z"/>
      </g>
    </g>
    <g>
      <path class="cls-2" d="M293.68,370.39c-7.2,0-15.32-2.08-23.64-6.25-.67-.34-1.19-.91-1.46-1.61-.16-.43-.18-.68-.23-1.4-.1-1.52-.4-6.16-1.06-11.24-3.74-29.13-14.23-111.95-14.34-112.78-.21-1.64.96-3.14,2.6-3.35,1.64-.2,3.15.96,3.35,2.6.11.83,10.6,83.65,14.34,112.77.55,4.27.86,8.21,1.01,10.39,13.47,6.31,26.26,6.43,33.41.33-.31-2.39-.97-7.33-1.41-10.62,0-.04-.01-.08-.01-.13-2.84-30.89,2.4-52.77,7.46-73.92l.78-3.25c.17-.84.67-1.56,1.4-2.01,1.18-.74,2.36-.44,2.9-.25,2.03.18,3.35,2.29,3.51,2.56l15.85,26.54c.21.35.34.74.4,1.14l4.92,36.77c5.07,3.88,17.14,10.94,32.38,5.03,1.12-7.47-3.83-47.82-7.72-56.72l-48.41-59.31c-1.05-1.28-.86-3.17.43-4.22,1.28-1.05,3.17-.86,4.22.43l48.49,59.41c.42.52.55.81.6.93,4.11,8.8,10.58,55.19,7.83,62.35-.51,1.34-1.38,1.94-2.02,2.21-19.34,8.21-34.5-1.38-40.13-5.89l-.12-.09c-.72-.47-1.22-1.23-1.34-2.12l-5-37.39-13.6-22.77c-4.99,20.9-9.51,40.98-6.86,69.95q1.75,12.95,1.3,13.85c-.14.28-.32.54-.54.76-4.76,4.85-11.49,7.29-19.29,7.29ZM368.19,285.11h0,0ZM367.98,284.75s.01.03.02.05c0-.02-.02-.03-.02-.05ZM320.4,272.88h0ZM320.4,272.87s0,0,0,0c0,0,0,0,0,0Z"/>
      <path class="cls-2" d="M293.68,373.39c-7.77,0-16.41-2.27-24.98-6.57-1.34-.68-2.38-1.82-2.92-3.22-.33-.86-.37-1.46-.42-2.28-.1-1.53-.4-6.1-1.04-11.05-3.75-29.24-14.24-112-14.34-112.79-.2-1.59.23-3.16,1.21-4.43.98-1.27,2.4-2.08,3.99-2.28,3.31-.4,6.29,1.94,6.71,5.2.1.78,10.6,83.67,14.34,112.77.35,2.73.65,5.67.89,8.77,10.99,4.76,21.18,5.12,27.35.99-.34-2.59-.83-6.26-1.19-8.88-.01-.08-.02-.17-.03-.26-2.88-31.38,2.41-53.5,7.53-74.89l.78-3.25c.32-1.56,1.29-2.97,2.72-3.86,1.51-.95,3.32-1.17,5.12-.65,3.12.46,4.95,3.13,5.45,3.96l15.85,26.54c.42.71.69,1.47.79,2.28l4.75,35.51c5.24,3.73,14.8,8.38,26.74,4.51.32-10.19-4.16-44.64-7.49-52.98l-48.13-58.98c-1.01-1.24-1.48-2.8-1.32-4.4.16-1.59.93-3.03,2.18-4.04,1.24-1.01,2.8-1.48,4.4-1.32,1.59.16,3.03.94,4.04,2.18l48.49,59.41c.6.75.85,1.24,1.01,1.58,4.11,8.8,11.19,56.09,7.9,64.67-.7,1.81-1.99,3.2-3.65,3.9-20.83,8.84-37.13-1.47-43.18-6.31h0c-1.4-.96-2.32-2.47-2.55-4.15l-4.92-36.77-9.49-15.89c-4.02,17.35-7.44,36.01-5.09,61.72q1.87,13.8,1,15.53c-.28.56-.64,1.07-1.08,1.51-5.25,5.36-12.67,8.19-21.43,8.19h0ZM270.48,351.14c.52,4.48.78,8.38.87,9.76.02.29.02.46.05.6,7.73,3.84,15.44,5.89,22.28,5.89h0c6.56,0,12.12-1.88,16.15-5.45l-.22.18c-8.06,6.88-22.09,6.92-36.63.11l-1.6-.75-.12-1.76c-.21-3.02-.48-5.91-.79-8.59ZM309.38,349.92c.28,2.1.62,4.62.9,6.71-.22-1.71-.52-3.93-.9-6.71ZM258.41,256.21c3.24,25.51,8.82,69.5,11.56,90.93-2.74-21.36-8.33-65.4-11.56-90.93ZM342.67,339.83c6.06,4.33,18.68,10.79,34.39,4.62l-.15.06c-15.82,6.13-28.59-.65-34.24-4.68ZM375.99,307.63c1.34,9.05,2.4,18.7,2.8,25.72-.39-7.11-1.46-16.73-2.8-25.72ZM319.7,273.75l10.76,18.03-10.75-18.01s0-.01-.01-.02ZM370.81,283.71l.04.08s0,0,0,0c-.01-.03-.03-.06-.04-.09ZM322.01,223.79l48.54,59.48s-.05-.06-.08-.1l-48.47-59.38ZM316.32,277.12c-.1.43-.21.87-.31,1.3l.14-.58.17-.73ZM320.41,272.87l2.67,1.34-2.67-1.34ZM320.41,272.87l2.67,1.34-2.67-1.34Z"/>
    </g>
    <g>
      <path class="cls-2" d="M110.47,371.78c-8.15,0-16.22-1.54-24.14-4.62-1.17-.45-1.93-1.58-1.91-2.83l.27-22.84c.81-32.21,12.17-61.04,34.74-88.12-2.04-4.38-6.77-16.12-7.65-31.99-1.02-18.35,3.18-45.87,28.96-72.79,13.16-13.74,32.17-21.11,56.51-21.91,22.93-.76,51.41,4.31,84.64,15.05,1.58.51,2.44,2.2,1.93,3.78-.51,1.58-2.2,2.45-3.78,1.93-32.57-10.53-60.36-15.5-82.6-14.76-22.72.75-40.35,7.5-52.38,20.06-19.43,20.29-28.62,43.18-27.32,68.04.97,18.63,7.8,31.46,7.87,31.59.59,1.09.45,2.43-.35,3.37-22.48,26.43-33.8,54.51-34.58,85.86l-.25,20.68c13.14,4.64,26.71,4.64,40.41.03-2.89-36.58,9.4-61.95,38.54-79.71,7.4-4.51,16.78-16.37,14.44-28.62-.31-1.63.76-3.2,2.38-3.51,1.63-.32,3.2.76,3.51,2.38,3.04,15.91-8.94,29.83-17.21,34.87-27.95,17.03-38.9,40.58-35.49,76.35.13,1.35-.67,2.62-1.94,3.1-8.25,3.07-16.48,4.61-24.62,4.61Z"/>
      <path class="cls-2" d="M110.47,374.78c-8.51,0-16.99-1.62-25.23-4.83-2.32-.9-3.85-3.18-3.83-5.66l.27-22.84c.81-32.38,12.01-61.36,34.24-88.56-2.33-5.45-6.34-16.72-7.15-31.35-1.05-18.94,3.27-47.33,29.79-75.03,13.72-14.32,33.43-22.01,58.58-22.83,23.28-.78,52.09,4.34,85.66,15.2,3.15,1.02,4.88,4.41,3.86,7.55-.49,1.53-1.55,2.77-2.98,3.5-1.43.73-3.06.86-4.58.36-32.25-10.42-59.7-15.34-81.57-14.62-21.91.72-38.84,7.16-50.31,19.14-18.83,19.67-27.74,41.81-26.49,65.81.93,17.76,7.45,30.21,7.52,30.34,1.16,2.15.88,4.86-.71,6.73-22.02,25.89-33.1,53.36-33.87,83.99l-.22,18.46c11.14,3.49,22.64,3.51,34.22.04-2.28-36.58,10.52-62.08,40.14-80.13,6.47-3.95,15.1-14.78,13.05-25.5-.3-1.57.03-3.17.93-4.5.9-1.33,2.26-2.22,3.84-2.52,1.56-.3,3.16.02,4.49.92,1.33.9,2.23,2.27,2.53,3.85,3.32,17.4-9.64,32.54-18.6,37.99-26.84,16.36-37.35,39.03-34.06,73.51.26,2.7-1.34,5.25-3.88,6.19-8.55,3.18-17.18,4.79-25.66,4.79ZM96.78,367.24c11.55,2.62,23.35,1.89,35.2-2.14l-.18.06c-11.81,3.98-23.56,4.68-35.03,2.08ZM133.87,362.52l.15,1.85s.01,0,.02,0c-.06-.62-.11-1.23-.17-1.84ZM118.71,259.01c-20.11,25.46-30.27,52.51-31.02,82.55l-.08,6.51.08-6.51c.75-30.04,10.91-57.1,31.02-82.55ZM186.78,253.42c2.43,12.73-6.35,25-14.14,30.62,7.41-5.33,16.7-17.24,14.14-30.62ZM114.74,220.64c0,.19.02.38.03.57.85,15.38,5.44,26.73,7.38,30.89l.8,1.72-1.02,1.22c.35-.42.7-.83,1.05-1.25-.3-.57-7.23-13.72-8.23-32.86,0-.1,0-.2-.01-.3ZM167.63,134.94c-9.79,3.52-18.06,8.77-24.73,15.73-.49.51-.97,1.02-1.45,1.53.48-.51.96-1.02,1.45-1.53,6.66-6.96,14.93-12.21,24.73-15.73Z"/>
    </g>
    <g>
      <path class="cls-2" d="M192.23,288.13c-6.71,0-13.17-.59-19.01-2.02-1.61-.39-2.6-2.02-2.2-3.62.39-1.61,2.02-2.6,3.63-2.2,30.1,7.34,79.67-9.27,83.63-11.12,1.3-.76,2.99-.45,3.91.78,1,1.32.73,3.2-.59,4.2-1.27.96-37.91,13.98-69.36,13.98ZM258.23,269.19c-.12.07-.2.13-.25.17.08-.06.16-.12.25-.17Z"/>
      <path class="cls-2" d="M192.24,291.13c-7.37,0-14.01-.71-19.72-2.1-1.56-.38-2.87-1.34-3.71-2.71-.83-1.37-1.08-2.98-.7-4.54.38-1.56,1.34-2.87,2.71-3.71,1.37-.83,2.99-1.08,4.54-.7,28.91,7.05,77.24-8.96,81.55-10.88,2.6-1.43,5.87-.73,7.67,1.66,1.99,2.64,1.46,6.41-1.18,8.4-2.41,1.82-40.34,14.58-71.17,14.58ZM173.94,283.2h.02s-.02,0-.02,0ZM259.76,271.72l.02.04s0,0,.01,0l-.03-.04s.03-.01.05-.02l-.27-.34.18.31-.35-.46.31.54s.05-.02.07-.03ZM259.8,271.75h0s0,0,0,0Z"/>
    </g>
    <g>
      <path class="cls-2" d="M210.14,368.76c-9.32,0-19.4-2-23.94-7.16q-.81-.92-1.21-10.92c-.06-1.52-.11-2.77-.13-3.25l-13.85-62.02c-.36-1.62.66-3.22,2.27-3.58,1.62-.36,3.22.66,3.58,2.27l13.9,62.24q.08.35.23,4.11c.09,2.25.24,6.07.35,7.82,3.31,2.87,11.12,4.65,20,4.48,8.27-.16,13.15-1.86,14.1-2.79,1.9-7.42-8.79-49.82-16.03-75.04-.46-1.59.46-3.25,2.05-3.71,1.59-.46,3.25.46,3.71,2.06,3.24,11.27,19.22,68.02,15.95,78.64-.83,2.7-3.9,4.58-9.37,5.75-3.32.71-7.39,1.12-11.61,1.12Z"/>
      <path class="cls-2" d="M210.14,371.76c-5.71,0-19.7-.8-26.2-8.18q-1.51-1.72-1.95-12.79c-.05-1.33-.09-2.4-.12-2.97l-13.79-61.78c-.72-3.23,1.32-6.44,4.55-7.16,3.24-.71,6.45,1.33,7.16,4.55l13.9,62.24q.14.62.3,4.65c.06,1.65.17,4.4.27,6.35,2.84,1.69,8.89,3.21,17.03,3.07,6.12-.12,9.84-1.1,11.4-1.69.43-8.47-7.77-43.1-16.16-72.32-.91-3.18.93-6.51,4.11-7.42,1.54-.44,3.16-.26,4.56.52,1.4.78,2.42,2.05,2.86,3.59,5.9,20.54,19.28,69.51,15.93,80.35-1.18,3.83-4.98,6.38-11.61,7.8-3.63.78-7.86,1.19-12.24,1.19ZM193.99,363.17c4.14,1.65,9.8,2.59,16.15,2.59,2.25,0,4.49-.12,6.59-.36-1.68.18-3.48.3-5.34.34-6.8.14-12.97-.82-17.41-2.57ZM188.04,351.81c.08,1.89.14,3.45.2,4.67-.07-1.45-.14-3.2-.2-4.67ZM173.94,284.74l13.9,62.24s0-.02,0-.03l-13.89-62.21ZM212.29,284.08c.22.78,10.64,37.19,14.72,60.02-2.71-15.43-8.52-38.46-14.72-60.02ZM212.29,284.08h0ZM212.29,284.07h0s0,0,0,0Z"/>
    </g>
  </g>
  <g>
    <circle class="cls-2" cx="368.95" cy="182.08" r="6.4"/>
    <path class="cls-2" d="M368.95,190.97c-4.91,0-8.9-3.99-8.9-8.9s3.99-8.9,8.9-8.9,8.9,3.99,8.9,8.9-3.99,8.9-8.9,8.9ZM368.95,178.18c-2.15,0-3.9,1.75-3.9,3.9s1.75,3.9,3.9,3.9,3.9-1.75,3.9-3.9-1.75-3.9-3.9-3.9Z"/>
  </g>
</svg>